<?xml version="1.0" encoding="UTF-8" standalone="no"?>
<svg
   xmlns:osb="http://www.openswatchbook.org/uri/2009/osb"
   xmlns:dc="http://purl.org/dc/elements/1.1/"
   xmlns:cc="http://creativecommons.org/ns#"
   xmlns:rdf="http://www.w3.org/1999/02/22-rdf-syntax-ns#"
   xmlns:svg="http://www.w3.org/2000/svg"
   xmlns="http://www.w3.org/2000/svg"
   xmlns:sodipodi="http://sodipodi.sourceforge.net/DTD/sodipodi-0.dtd"
   xmlns:inkscape="http://www.inkscape.org/namespaces/inkscape"
   aria-hidden="true"
   focusable="false"
   data-prefix="fab"
   data-icon="researchgate"
   class="svg-inline--fa fa-researchgate fa-w-14"
   role="img"
   viewBox="0 0 448 448"
   version="1.1"
   id="svg4"
   sodipodi:docname="researchgate-brands.svg"
   width="320"
   height="320"
   inkscape:version="0.92.3 (2405546, 2018-03-11)">
  <metadata
     id="metadata10">
    <rdf:RDF>
      <cc:Work
         rdf:about="">
        <dc:format>image/svg+xml</dc:format>
        <dc:type
           rdf:resource="http://purl.org/dc/dcmitype/StillImage" />
        <dc:title />
      </cc:Work>
    </rdf:RDF>
  </metadata>
  <defs
     id="defs8">
    <linearGradient
       id="linearGradient4517"
       osb:paint="solid">
      <stop
         style="stop-color:#000000;stop-opacity:1;"
         offset="0"
         id="stop4515" />
    </linearGradient>
  </defs>
  <sodipodi:namedview
     pagecolor="#ffffff"
     bordercolor="#666666"
     borderopacity="1"
     objecttolerance="10"
     gridtolerance="10"
     guidetolerance="10"
     inkscape:pageopacity="0"
     inkscape:pageshadow="2"
     inkscape:window-width="1202"
     inkscape:window-height="952"
     id="namedview6"
     showgrid="false"
     inkscape:zoom="0.46093749"
     inkscape:cx="46.065837"
     inkscape:cy="294.3881"
     inkscape:window-x="0"
     inkscape:window-y="426"
     inkscape:window-maximized="0"
     inkscape:current-layer="svg4"
     scale-x="1.4"
     fit-margin-top="0"
     fit-margin-left="0"
     fit-margin-right="0"
     fit-margin-bottom="0" />
  <path
     style="opacity:1;fill:#ffffff;fill-opacity:1;stroke:none;stroke-width:6.08793163;stroke-miterlimit:4;stroke-dasharray:none;stroke-dashoffset:0;stroke-opacity:1"
     d="m 244.37542,336.88636 c -12.53217,-1.47458 -23.39941,-7.95778 -33.01228,-19.6946 -7.12816,-8.70307 -23.62628,-33.3381 -32.53017,-48.5741 l -6.74618,-11.54382 H 160.3434 148.6 l 0.41246,29.26224 c 0.33948,24.08598 0.72241,29.96195 2.16476,33.21782 2.05143,4.63082 5.79152,6.84225 13.211,7.8114 9.80262,1.28041 10.18737,1.45527 10.18737,4.62959 v 2.9326 h -33.33716 -33.33717 l 0.31648,-3.14297 c 0.29277,-2.90759 0.78103,-3.23527 6.51927,-4.37522 7.50209,-1.49036 11.62241,-4.34151 13.33424,-9.22695 0.93739,-2.67528 1.29164,-21.25415 1.31872,-69.16233 0.0348,-61.60465 -0.0819,-65.76619 -1.95953,-69.90065 -2.15716,-4.74987 -6.10853,-6.99688 -14.86932,-8.45568 -4.10324,-0.68326 -4.56383,-1.06378 -4.56383,-3.7705 v -3.01054 l 36.24222,-0.4459 c 19.93322,-0.24525 39.62483,-0.0928 43.75912,0.3388 29.13542,3.0415 46.17959,21.17169 44.22869,47.04686 -1.1956,15.85732 -12.25057,31.45394 -27.81332,39.23966 -4.16693,2.08463 -8.52392,3.79025 -9.68216,3.79025 -1.93226,0 -1.81862,0.50921 1.37783,6.1746 10.6008,18.78881 32.48061,48.05888 43.35172,57.99445 6.66208,6.08877 15.66243,10.99999 20.15868,10.99999 2.61394,0 3.01069,0.415 3.01069,3.14917 0,2.08079 -0.63755,3.32951 -1.87922,3.68078 -3.23218,0.91434 -12.45033,1.49698 -16.37612,1.03505 z M 189.6584,242.9817 c 8.2496,-3.83669 13.26075,-8.56667 16.9968,-16.04316 3.91821,-7.84104 5.15476,-17.51903 3.36727,-26.35435 -2.41945,-11.95902 -9.14344,-19.93643 -20.33615,-24.12701 -6.78959,-2.54203 -22.92832,-3.82113 -33.68208,-2.6695 l -7.2009,0.77116 v 35.17238 c 0,19.34482 0.36243,35.53997 0.80539,35.98923 0.44296,0.44926 8.29543,0.63998 17.44995,0.42382 15.17743,-0.35836 17.1695,-0.63713 22.59972,-3.16257 z"
     id="path814"
     inkscape:connector-curvature="0" />
  <path
     style="opacity:1;fill:#ffffff;fill-opacity:1;stroke:none;stroke-width:6.08793163;stroke-miterlimit:4;stroke-dasharray:none;stroke-dashoffset:0;stroke-opacity:1"
     d="m 274.43667,197.72462 c -8.72228,-2.05385 -15.08952,-7.52984 -19.23927,-16.54623 -2.34205,-5.08871 -2.47086,-6.60347 -2.46556,-28.99378 0.004,-20.33717 0.26973,-24.18824 1.90364,-27.6754 2.81697,-6.01206 9.28072,-12.6616 14.60506,-15.02484 9.83626,-4.36589 24.55694,-4.23789 33.43373,0.29071 3.79374,1.93543 11.79798,10.06521 11.79798,11.98304 0,0.47592 -1.84215,2.08439 -4.09366,3.57437 l -4.09365,2.70905 -4.91006,-4.70466 c -8.38238,-8.03173 -18.31155,-8.87147 -27.86233,-2.35639 -7.23596,4.93602 -8.4371,9.32742 -8.4371,30.84599 0,19.95642 0.64682,23.71132 5.12215,29.7343 3.57155,4.80669 8.94478,6.94371 15.98993,6.35947 11.16142,-0.92559 18.55805,-9.48311 19.50434,-22.56553 l 0.44776,-6.19013 H 297.41981 288.7 v -4.29537 -4.29538 h 14.0678 14.06782 l -0.37631,13.69151 c -0.34259,12.46497 -0.65033,14.24955 -3.43514,19.92087 -2.05751,4.19011 -4.42904,7.1361 -7.24444,8.99925 -7.41458,4.90674 -21.26414,6.91246 -31.34306,4.53915 z"
     id="path816"
     inkscape:connector-curvature="0" />
</svg>
